<svg xmlns="http://www.w3.org/2000/svg" width="59.997" height="45.232" viewBox="0 0 59.997 45.232">
    <defs>
        <style>
            .prefix__cls-1{fill:#007bff}.prefix__cls-2{fill:#66afff}
        </style>
    </defs>
    <g id="prefix__Group_1197" data-name="Group 1197" transform="translate(-270.003 -373)">
        <path id="prefix__Path_635" d="M171.78 51.5a1.172 1.172 0 0 0-1.038-1.164 31.128 31.128 0 0 1-11.295-3.559 1.172 1.172 0 0 0-1.115 0 31.127 31.127 0 0 1-11.295 3.559A1.172 1.172 0 0 0 146 51.5v11.985a19.188 19.188 0 0 0 12.483 17.92 1.171 1.171 0 0 0 .813 0 19.188 19.188 0 0 0 12.483-17.92zm-2.344 11.981a16.837 16.837 0 0 1-10.546 15.57 16.837 16.837 0 0 1-10.546-15.566V52.533a33.427 33.427 0 0 0 10.546-3.4 33.427 33.427 0 0 0 10.546 3.4z" class="prefix__cls-1" data-name="Path 635" transform="translate(141.111 331.825)"/>
        <path id="prefix__Path_636" d="M196 193.031v1.169a1.172 1.172 0 0 0 1.172 1.172h11.718a1.172 1.172 0 0 0 1.172-1.172v-1.172a7.031 7.031 0 1 0-14.062 0zm7.031-4.687a4.693 4.693 0 0 1 4.687 4.687h-9.375a4.693 4.693 0 0 1 4.688-4.687z" class="prefix__cls-2" data-name="Path 636" transform="translate(96.97 208.796)"/>
        <path id="prefix__Path_637" d="M216 110.687a4.687 4.687 0 1 0 4.687-4.687 4.693 4.693 0 0 0-4.687 4.687zm7.031 0a2.344 2.344 0 1 1-2.344-2.344 2.346 2.346 0 0 1 2.344 2.344z" class="prefix__cls-2" data-name="Path 637" transform="translate(79.314 279.421)"/>
        <path id="prefix__Path_638" d="M421.718 172.343l-9.375 9.375a1.172 1.172 0 0 0-.343.829v4.687a1.172 1.172 0 1 0 2.344 0v-4.2l9.031-9.034a1.172 1.172 0 1 0-1.657-1.657z" class="prefix__cls-2" data-name="Path 638" transform="translate(-93.719 221.155)"/>
        <path id="prefix__Path_639" d="M.343 174l9.031 9.031v4.2a1.172 1.172 0 0 0 2.344 0v-4.687a1.172 1.172 0 0 0-.343-.829L2 172.343A1.172 1.172 0 1 0 .343 174z" class="prefix__cls-2" data-name="Path 639" transform="translate(270.003 221.155)"/>
        <circle id="prefix__Ellipse_37" cx="1" cy="1" r="1" class="prefix__cls-1" data-name="Ellipse 37" transform="translate(311 408)"/>
        <path id="prefix__Path_640" d="M137.057 30.809a1.172 1.172 0 1 0 2.152.929 23.639 23.639 0 0 0 1.946-9.426V5.86a1.172 1.172 0 0 0-1.172-1.172h-.925A26.653 26.653 0 0 1 124.227.2a1.172 1.172 0 0 0-1.3 0A26.653 26.653 0 0 1 108.1 4.688h-.925A1.172 1.172 0 0 0 106 5.86v16.452a23.778 23.778 0 0 0 17.255 22.876 1.171 1.171 0 0 0 .644 0 23.629 23.629 0 0 0 8.732-4.629 1.172 1.172 0 0 0-1.5-1.8 21.286 21.286 0 0 1-7.55 4.078 21.543 21.543 0 0 1-15.234-20.528V7.03a28.98 28.98 0 0 0 15.234-4.462 28.98 28.98 0 0 0 15.23 4.462v15.282a21.307 21.307 0 0 1-1.754 8.5z" class="prefix__cls-1" data-name="Path 640" transform="translate(176.424 372.999)"/>
    </g>
</svg>
