<svg xmlns="http://www.w3.org/2000/svg" width="53.984" height="60.087" viewBox="0 0 53.984 60.087">
    <defs>
        <style>
            .prefix__cls-1{fill:#46467f}.prefix__cls-2{fill:#9494dc}
        </style>
    </defs>
    <g id="prefix__Group_1199" data-name="Group 1199" transform="translate(-448.767 -374.915)">
        <path id="prefix__Path_645" d="M75.291 50.7V22.3A22.269 22.269 0 0 0 41.136 3.437a1.174 1.174 0 1 0 1.254 1.984A19.922 19.922 0 0 1 72.944 22.3v28.4h-39.9V22.3a19.813 19.813 0 0 1 3.074-10.6 1.174 1.174 0 1 0-1.984-1.255A22.157 22.157 0 0 0 30.7 22.3v28.4a4.7 4.7 0 0 0-4.7 4.693v3.521a1.174 1.174 0 0 0 1.174 1.174h51.638a1.174 1.174 0 0 0 1.174-1.174v-3.521a4.7 4.7 0 0 0-4.695-4.693zm2.347 7.042h-49.29v-2.349a2.35 2.35 0 0 1 2.352-2.347h44.6a2.35 2.35 0 0 1 2.347 2.347z" class="prefix__cls-1" data-name="Path 645" transform="translate(422.766 374.915)"/>
        <path id="prefix__Path_647" d="M236.005 313.174a1.174 1.174 0 0 0 1.174 1.174h7.041a1.174 1.174 0 0 0 0-2.347h-7.041a1.174 1.174 0 0 0-1.174 1.173z" class="prefix__cls-1" data-name="Path 647" transform="translate(237.407 99.531)"/>
        <path id="prefix__Path_648" d="M198.353 313.174a1.174 1.174 0 0 0-1.174-1.174 1.174 1.174 0 1 0 1.175 1.174z" class="prefix__cls-1" data-name="Path 648" transform="translate(272.713 99.531)"/>
        <path id="prefix__Path_649" d="M119.894 55.065a1.174 1.174 0 1 0-.829-2 1.174 1.174 0 0 0 .83 2z" class="prefix__cls-1" data-name="Path 649" transform="translate(340.927 328.384)"/>
        <g id="prefix__Group_1168" data-name="Group 1168" transform="translate(448.767 374.915)">
            <path id="prefix__Path_650" d="M164.139 156.943a4.074 4.074 0 0 0-4.07-4.07h-2.9a1.174 1.174 0 0 0-1.169 1.174v9.753a1.174 1.174 0 1 0 2.347 0v-2.79h1.045l1.949 3.376a1.174 1.174 0 0 0 2.033-1.174l-1.512-2.62a4.074 4.074 0 0 0 2.277-3.649zm-5.792-1.723h1.723a1.723 1.723 0 1 1 0 3.445h-1.723z" class="prefix__cls-2" data-name="Path 650" transform="translate(-140.744 -134.932)"/>
            <path id="prefix__Path_651" d="M247.176 164.975a1.174 1.174 0 0 0 1.174-1.174v-9.755a1.174 1.174 0 0 0-2.347 0v9.754a1.174 1.174 0 0 0 1.173 1.175z" class="prefix__cls-2" data-name="Path 651" transform="translate(-220.183 -134.932)"/>
            <path id="prefix__Path_652" d="M290.716 152.873h-2.9a1.174 1.174 0 0 0-1.174 1.174v9.753a1.174 1.174 0 1 0 2.347 0v-2.79h1.723a4.07 4.07 0 1 0 0-8.139zm0 5.792h-1.723v-3.445h1.723a1.723 1.723 0 1 1 0 3.445z" class="prefix__cls-2" data-name="Path 652" transform="translate(-256.057 -134.932)"/>
            <path id="prefix__Path_653" d="M337.171 236a1.174 1.174 0 1 0 1.174 1.174 1.173 1.173 0 0 0-1.174-1.174z" class="prefix__cls-1" data-name="Path 653" transform="translate(-299.618 -208.301)"/>
        </g>
    </g>
</svg>
