<svg xmlns="http://www.w3.org/2000/svg" width="59.99" height="59.997" viewBox="0 0 59.99 59.997">
    <defs>
        <style>
            .prefix__cls-1{fill:#ff8686}
        </style>
    </defs>
    <g id="prefix__Page-1" transform="translate(-.004 -.003)">
        <g id="prefix___002---Virus" data-name="002---Virus">
            <path id="prefix__Shape" d="M27 29a5 5 0 1 0-5-5 5 5 0 0 0 5 5zm0-8a3 3 0 1 1-3 3 3 3 0 0 1 3-3z" class="prefix__cls-1"/>
            <path id="prefix__Shape-2" d="M38 30a3 3 0 1 0-3-3 3 3 0 0 0 3 3zm0-4a1 1 0 1 1-1 1 1 1 0 0 1 1-1z" class="prefix__cls-1" data-name="Shape"/>
            <path id="prefix__Shape-3" d="M19 35a3 3 0 1 0-3-3 3 3 0 0 0 3 3zm0-4a1 1 0 1 1-1 1 1 1 0 0 1 1-1z" class="prefix__cls-1" data-name="Shape"/>
            <path id="prefix__Shape-4" d="M25 37a6 6 0 1 0 6-6 6 6 0 0 0-6 6zm10 0a4 4 0 1 1-4-4 4 4 0 0 1 4 4z" class="prefix__cls-1" data-name="Shape"/>
            <path id="prefix__Shape-5" fill="#fc312f" d="M4 34a3.945 3.945 0 0 0 2.1-.6 1.77 1.77 0 0 1 1.016-.335c1.282.067 3.185.209 5.252.5a17.392 17.392 0 0 0 .572 2.16c-1.727 1.353-3.326 2.433-4.359 3.1a1.471 1.471 0 0 1-.87.175 4.054 4.054 0 0 0-2.851.977 4 4 0 0 0 4.611 6.49 3.934 3.934 0 0 0 1.54-1.581 1.777 1.777 0 0 1 .7-.786c.979-.5 3.44-1.58 4.824-2.167a17.745 17.745 0 0 0 1.565 1.542c-.855 2.126-1.753 3.942-2.244 4.888a1.393 1.393 0 0 1-.656.577A4 4 0 1 0 21 52.4a1.8 1.8 0 0 1 .218-1.047c.7-1.08 1.778-2.661 3.065-4.307a17.479 17.479 0 0 0 2.129.581c.139 1.225.468 4.2.521 5.347a1.408 1.408 0 0 1-.271.82 4.012 4.012 0 0 0 2.668 6.155A4.163 4.163 0 0 0 30 60a3.991 3.991 0 0 0 4-4 3.942 3.942 0 0 0-.615-2.129 1.705 1.705 0 0 1-.317-.98c.067-1.283.206-3.184.5-5.252a17.713 17.713 0 0 0 2.157-.59c1.416 1.807 2.536 3.489 3.109 4.385a1.4 1.4 0 0 1 .171.856 4.013 4.013 0 0 0 4.018 4.227 3.9 3.9 0 0 0 1.37-.246 4 4 0 0 0 2.073-5.753 3.933 3.933 0 0 0-1.566-1.524 1.8 1.8 0 0 1-.8-.714c-.584-1.145-1.414-2.866-2.2-4.809a17.651 17.651 0 0 0 1.566-1.553c2.4 1.041 4.175 1.849 4.889 2.222a1.4 1.4 0 0 1 .583.662 4.006 4.006 0 1 0 5.575-5.272 3.954 3.954 0 0 0-2.168-.53 1.643 1.643 0 0 1-.985-.215c-1.532-.991-2.981-2.019-4.292-3.067a17.5 17.5 0 0 0 .563-2.152c2.27-.322 4.284-.451 5.345-.5a1.38 1.38 0 0 1 .826.28A4 4 0 1 0 56 26a3.942 3.942 0 0 0-2.1.6 1.838 1.838 0 0 1-1.016.335c-1.282-.067-3.185-.208-5.251-.5a17.361 17.361 0 0 0-.572-2.161c1.725-1.351 3.324-2.432 4.358-3.1a1.449 1.449 0 0 1 .867-.174 4.03 4.03 0 0 0 2.85-.978 4 4 0 1 0-6.151-4.909 1.777 1.777 0 0 1-.7.786c-.979.5-3.44 1.58-4.824 2.167a17.745 17.745 0 0 0-1.561-1.541c.855-2.126 1.753-3.942 2.244-4.888a1.4 1.4 0 0 1 .656-.577 4 4 0 1 0-5.265-5.575A3.943 3.943 0 0 0 39 7.6a1.8 1.8 0 0 1-.218 1.047c-.7 1.08-1.777 2.66-3.065 4.306a17.662 17.662 0 0 0-2.129-.581c-.139-1.23-.469-4.213-.521-5.353a1.379 1.379 0 0 1 .268-.807A4 4 0 1 0 26 4a3.95 3.95 0 0 0 .613 2.126 1.715 1.715 0 0 1 .319.986c-.057 1.094-.351 3.766-.535 5.257a17.38 17.38 0 0 0-2.119.582c-1.415-1.8-2.535-3.488-3.109-4.385A1.4 1.4 0 0 1 21 7.712a4 4 0 1 0-7.461 1.772 3.936 3.936 0 0 0 1.568 1.523 1.793 1.793 0 0 1 .8.713c.584 1.145 1.415 2.867 2.2 4.81a17.631 17.631 0 0 0-1.565 1.552c-1.13-.49-3.868-1.688-4.89-2.222a1.4 1.4 0 0 1-.583-.662A4.008 4.008 0 1 0 7.656 21a1.653 1.653 0 0 1 .983.215 52.168 52.168 0 0 1 4.291 3.068 17.578 17.578 0 0 0-.562 2.152c-2.266.321-4.282.45-5.344.5a1.4 1.4 0 0 1-.826-.28A4 4 0 1 0 4 34zm15.54 16.26a3.729 3.729 0 0 0-.54 2.2 1.959 1.959 0 0 1-.268 1.055 2 2 0 1 1-2.632-2.792 3.331 3.331 0 0 0 1.532-1.45c.557-1.073 1.33-2.657 2.1-4.5a18.05 18.05 0 0 0 2.613 1.509c-1.171 1.528-2.145 2.967-2.805 3.978zm22.775-1.071a3.736 3.736 0 0 0 1.637 1.568 1.948 1.948 0 0 1 .778.758A2 2 0 1 1 41 52.4a3.335 3.335 0 0 0-.49-2.051c-.537-.84-1.555-2.372-2.848-4.061a17.9 17.9 0 0 0 2.608-1.518c.742 1.782 1.499 3.347 2.045 4.419zm10.461-20.26a3.71 3.71 0 0 0 2.175-.633 2.054 2.054 0 0 1 2.576.409 2 2 0 0 1-2.633 2.966 3.366 3.366 0 0 0-2.021-.6c-.995.045-2.829.161-4.938.436.041-.5.064-1 .064-1.507s-.022-1.009-.064-1.508c1.908.248 3.64.374 4.841.437zM40.46 9.74a3.729 3.729 0 0 0 .54-2.2 1.959 1.959 0 0 1 .268-1.055A2 2 0 1 1 43.9 9.277a3.338 3.338 0 0 0-1.531 1.45c-.557 1.073-1.33 2.657-2.1 4.5a18.05 18.05 0 0 0-2.613-1.509c1.165-1.528 2.139-2.967 2.8-3.978zm-22.775 1.071a3.732 3.732 0 0 0-1.636-1.567 1.959 1.959 0 0 1-.779-.759A2 2 0 1 1 19 7.606a3.334 3.334 0 0 0 .49 2.05c.65 1.016 1.634 2.477 2.85 4.063a18.014 18.014 0 0 0-2.611 1.513c-.74-1.783-1.5-3.349-2.044-4.421zm-7.96 8.723A3.574 3.574 0 0 0 7.564 19a1.937 1.937 0 0 1-1.079-.264A2 2 0 1 1 9.277 16.1a3.343 3.343 0 0 0 1.452 1.54c1.032.538 3.582 1.659 5.01 2.279a2 2 0 0 0 2.3-.525 15.961 15.961 0 0 1 8.758-5.061A2 2 0 0 0 28.4 12.6c.173-1.518.472-4.236.531-5.384a3.659 3.659 0 0 0-.631-2.162A1.955 1.955 0 0 1 28 4a2 2 0 1 1 3.666 1.114 3.324 3.324 0 0 0-.6 2c.053 1.157.356 3.935.532 5.488a2 2 0 0 0 1.607 1.73 15.947 15.947 0 0 1 8.755 5.059 2.005 2.005 0 0 0 2.3.523c1.4-.61 3.9-1.712 4.934-2.236a3.719 3.719 0 0 0 1.548-1.621 1.975 1.975 0 0 1 .77-.789 2 2 0 0 1 2.325 3.232 2.052 2.052 0 0 1-1.44.5 3.364 3.364 0 0 0-2.06.487c-1.074.691-2.729 1.808-4.514 3.207a2.009 2.009 0 0 0-.648 2.225 16.047 16.047 0 0 1 0 10.158 2.01 2.01 0 0 0 .648 2.222c1.371 1.076 2.87 2.14 4.454 3.164a3.607 3.607 0 0 0 2.159.537 1.912 1.912 0 0 1 1.079.264 2 2 0 1 1-2.792 2.636 3.336 3.336 0 0 0-1.452-1.539c-1.021-.533-3.576-1.657-5.009-2.279a2 2 0 0 0-2.3.525 15.887 15.887 0 0 1-9.44 5.182 1.008 1.008 0 0 0-.836.859c-.373 2.41-.542 4.666-.618 6.136a3.637 3.637 0 0 0 .628 2.158A1.954 1.954 0 0 1 32 56a2 2 0 1 1-3.662-1.111 3.353 3.353 0 0 0 .6-2.008c-.054-1.165-.356-3.935-.532-5.482a2 2 0 0 0-1.606-1.728 15.948 15.948 0 0 1-8.756-5.06 2.023 2.023 0 0 0-1.513-.687 1.989 1.989 0 0 0-.789.164c-1.4.61-3.9 1.712-4.934 2.236a3.719 3.719 0 0 0-1.548 1.621 1.969 1.969 0 0 1-.77.789A2 2 0 0 1 6.163 41.5 2.043 2.043 0 0 1 7.6 41a3.386 3.386 0 0 0 2.059-.488c1.073-.69 2.727-1.807 4.515-3.208a2.009 2.009 0 0 0 .648-2.224 16.047 16.047 0 0 1 0-10.155 2.01 2.01 0 0 0-.647-2.226c-1.363-1.074-2.862-2.138-4.45-3.165zm-7.7 10.119A2.012 2.012 0 0 1 5.1 28.329a3.344 3.344 0 0 0 2.021.6c1.2-.054 2.959-.176 4.937-.435-.041.5-.063 1-.063 1.506s.023 1.009.064 1.508c-1.908-.248-3.64-.374-4.841-.437a3.753 3.753 0 0 0-2.175.633 2.052 2.052 0 0 1-2.572-.4 1.994 1.994 0 0 1-.444-1.647z" data-name="Shape"/>
        </g>
    </g>
</svg>
